<?xml version="1.0" ?><!DOCTYPE svg  PUBLIC '-//W3C//DTD SVG 1.1//EN'  'http://www.w3.org/Graphics/SVG/1.1/DTD/svg11.dtd'><svg height="96" version="1.1" viewBox="0 0 96 96" width="96" xmlns="http://www.w3.org/2000/svg" xmlns:xlink="http://www.w3.org/1999/xlink"><path d="M92.68 9.384c-0.008-0.024-0.032-0.048-0.044-0.076-0.052-0.14-0.128-0.248-0.208-0.368-0.064-0.1-0.116-0.212-0.2-0.296-0.084-0.088-0.188-0.156-0.284-0.232-0.108-0.076-0.204-0.16-0.328-0.216-0.1-0.052-0.22-0.068-0.328-0.096-0.14-0.040-0.276-0.080-0.424-0.084-0.028-0.004-0.060-0.016-0.084-0.016-0.108 0-0.204 0.044-0.312 0.064-0.1 0.016-0.204 0-0.304 0.036-0.032 0.008-0.052 0.028-0.080 0.040-0.136 0.052-0.252 0.132-0.368 0.212-0.1 0.060-0.208 0.116-0.296 0.196-0.092 0.088-0.16 0.196-0.236 0.3-0.080 0.104-0.156 0.196-0.216 0.316-0.052 0.104-0.068 0.224-0.096 0.336-0.032 0.14-0.080 0.276-0.084 0.416 0 0.032-0.016 0.060-0.016 0.084 0.004 12.132-18.288 22-40.772 22s-40.772-9.868-40.772-22c0-0.028-0.016-0.052-0.016-0.084-0.004-0.144-0.048-0.272-0.084-0.416-0.028-0.112-0.048-0.236-0.096-0.34-0.056-0.116-0.136-0.208-0.212-0.312s-0.144-0.216-0.236-0.304c-0.084-0.080-0.192-0.136-0.292-0.196-0.12-0.080-0.236-0.16-0.372-0.212-0.028-0.008-0.052-0.028-0.080-0.040-0.1-0.032-0.204-0.016-0.312-0.032-0.104-0.016-0.196-0.064-0.308-0.064-0.028 0-0.056 0.012-0.084 0.012-0.148 0.004-0.276 0.052-0.416 0.084-0.116 0.028-0.236 0.048-0.34 0.096-0.116 0.056-0.212 0.14-0.312 0.216-0.104 0.076-0.216 0.14-0.304 0.236-0.080 0.084-0.132 0.188-0.196 0.292-0.080 0.12-0.16 0.236-0.208 0.372-0.012 0.024-0.032 0.048-0.044 0.076-8.072 24.908 0.096 37.512 8 49.704 0.332 0.512 0.876 0.844 1.484 0.908 0.608 0.060 1.204-0.164 1.632-0.592 3.616-3.72 8.496-1.236 9.904-0.392 4.516 2.728 8.096 8.532 6.204 14.376-0.288 0.892 0.072 1.852 0.868 2.332s1.82 0.348 2.468-0.316c1.34-1.376 4.26-2.18 6.824-1.136 3.416 1.388 5.3 5.56 5.3 11.74 0 1.108 0.896 2 2 2s2-0.892 2-2c0-6.18 1.888-10.352 5.296-11.74 2.572-1.044 5.492-0.24 6.828 1.136 0.648 0.668 1.672 0.796 2.468 0.316s1.156-1.44 0.868-2.332c-1.896-5.84 1.688-11.652 6.204-14.376 1.412-0.844 6.284-3.336 9.908 0.392 0.42 0.428 1.020 0.652 1.632 0.592 0.6-0.064 1.152-0.396 1.484-0.908 7.896-12.192 16.064-24.804 7.992-49.704z" fill="#000000"/><path d="M38 27.264c3.144 0.464 6.48 0.736 10.004 0.736s6.86-0.272 10.008-0.732c-0.852-2.908-1.664-6.72-1.328-9.936 0.092-0.896-0.42-1.744-1.256-2.068-0.84-0.328-1.792-0.056-2.332 0.668-2.3 3.072-3.948 5.7-5.092 8.108-1.144-2.408-2.796-5.036-5.092-8.108-0.54-0.72-1.492-0.992-2.332-0.668-0.832 0.32-1.348 1.168-1.256 2.068 0.336 3.216-0.48 7.024-1.324 9.932z" fill="#000000"/></svg>